<mxfile host="app.diagrams.net" agent="Mozilla/5.0 (Windows NT 10.0; Win64; x64) AppleWebKit/537.36 (KHTML, like Gecko) Chrome/128.0.0.0 Safari/537.36" version="24.7.12">
  <diagram id="C5RBs43oDa-KdzZeNtuy" name="Page-1">
    <mxGraphModel dx="880" dy="434" grid="1" gridSize="10" guides="1" tooltips="1" connect="1" arrows="1" fold="1" page="1" pageScale="1" pageWidth="827" pageHeight="1169" math="0" shadow="0">
      <root>
        <mxCell id="WIyWlLk6GJQsqaUBKTNV-0" />
        <mxCell id="WIyWlLk6GJQsqaUBKTNV-1" parent="WIyWlLk6GJQsqaUBKTNV-0" />
        <mxCell id="WIyWlLk6GJQsqaUBKTNV-2" value="" style="rounded=0;html=1;jettySize=auto;orthogonalLoop=1;fontSize=11;endArrow=block;endFill=0;endSize=8;strokeWidth=1;shadow=0;labelBackgroundColor=none;edgeStyle=orthogonalEdgeStyle;" parent="WIyWlLk6GJQsqaUBKTNV-1" edge="1">
          <mxGeometry relative="1" as="geometry">
            <mxPoint x="220" y="120" as="sourcePoint" />
            <mxPoint x="220" y="170" as="targetPoint" />
          </mxGeometry>
        </mxCell>
        <mxCell id="tVGEAQDPzkjPkeP2s8TR-1" value="Inicio" style="ellipse;whiteSpace=wrap;html=1;aspect=fixed;" vertex="1" parent="WIyWlLk6GJQsqaUBKTNV-1">
          <mxGeometry x="180" y="40" width="80" height="80" as="geometry" />
        </mxCell>
        <mxCell id="tVGEAQDPzkjPkeP2s8TR-4" value="" style="edgeStyle=orthogonalEdgeStyle;rounded=0;orthogonalLoop=1;jettySize=auto;html=1;" edge="1" parent="WIyWlLk6GJQsqaUBKTNV-1" source="tVGEAQDPzkjPkeP2s8TR-2">
          <mxGeometry relative="1" as="geometry">
            <mxPoint x="215" y="350" as="targetPoint" />
          </mxGeometry>
        </mxCell>
        <mxCell id="tVGEAQDPzkjPkeP2s8TR-2" value="&lt;div&gt;Mostrar mensaje: &quot;Por favor, ingresar las medidas de la pieza del&lt;/div&gt;&lt;div&gt;mueble (en cms): &quot;&lt;/div&gt;" style="shape=parallelogram;perimeter=parallelogramPerimeter;whiteSpace=wrap;html=1;fixedSize=1;fillColor=#FFFF99;" vertex="1" parent="WIyWlLk6GJQsqaUBKTNV-1">
          <mxGeometry x="120" y="170" width="210" height="110" as="geometry" />
        </mxCell>
        <mxCell id="tVGEAQDPzkjPkeP2s8TR-7" value="" style="edgeStyle=orthogonalEdgeStyle;rounded=0;orthogonalLoop=1;jettySize=auto;html=1;" edge="1" parent="WIyWlLk6GJQsqaUBKTNV-1" source="tVGEAQDPzkjPkeP2s8TR-5">
          <mxGeometry relative="1" as="geometry">
            <mxPoint x="215" y="520" as="targetPoint" />
          </mxGeometry>
        </mxCell>
        <mxCell id="tVGEAQDPzkjPkeP2s8TR-5" value="&lt;div&gt;Convertir las medidas de cms a pulgadas&lt;/div&gt;&lt;div&gt;Convertir medida_en_pulgadas = medida_en_cms / 2.54&lt;/div&gt;" style="rounded=0;whiteSpace=wrap;html=1;" vertex="1" parent="WIyWlLk6GJQsqaUBKTNV-1">
          <mxGeometry x="145" y="350" width="140" height="80" as="geometry" />
        </mxCell>
        <mxCell id="tVGEAQDPzkjPkeP2s8TR-10" value="" style="edgeStyle=orthogonalEdgeStyle;rounded=0;orthogonalLoop=1;jettySize=auto;html=1;" edge="1" parent="WIyWlLk6GJQsqaUBKTNV-1" source="tVGEAQDPzkjPkeP2s8TR-8" target="tVGEAQDPzkjPkeP2s8TR-9">
          <mxGeometry relative="1" as="geometry" />
        </mxCell>
        <mxCell id="tVGEAQDPzkjPkeP2s8TR-8" value="&lt;div&gt;&lt;div&gt;Mostrar las medidas convertidas en pulgadas al usuario&lt;/div&gt;&lt;div&gt;Mostrar mensaje: &quot;Las medidas en pulgadas de la pieza ingresada son: , medida_en_pulgadas&lt;/div&gt;&lt;/div&gt;" style="shape=parallelogram;perimeter=parallelogramPerimeter;whiteSpace=wrap;html=1;fixedSize=1;" vertex="1" parent="WIyWlLk6GJQsqaUBKTNV-1">
          <mxGeometry x="100" y="525" width="230" height="120" as="geometry" />
        </mxCell>
        <mxCell id="tVGEAQDPzkjPkeP2s8TR-9" value="Fin" style="ellipse;whiteSpace=wrap;html=1;" vertex="1" parent="WIyWlLk6GJQsqaUBKTNV-1">
          <mxGeometry x="175" y="745" width="80" height="80" as="geometry" />
        </mxCell>
      </root>
    </mxGraphModel>
  </diagram>
</mxfile>
